<svg width="180" height="190" viewBox="0 0 180 190" fill="none" xmlns="http://www.w3.org/2000/svg">
<path d="M163.696 63.3706L156.489 69.0279C155.287 65.907 154.047 62.9062 152.431 60.0023C152.366 59.8851 152.3 59.7681 152.234 59.6513L159.289 54.2601C161.005 57.1964 162.361 60.2244 163.696 63.3706Z" fill="white"/>
<path d="M163.696 63.3706L156.489 69.0279C155.287 65.907 154.047 62.9062 152.431 60.0023C152.366 59.8851 152.3 59.7681 152.234 59.6513L159.289 54.2601C161.005 57.1964 162.361 60.2244 163.696 63.3706Z" fill="url(#paint0_radial_233_81)"/>
<path fill-rule="evenodd" clip-rule="evenodd" d="M38.1723 33.6169L43.8369 40.3545C30.7452 51.5013 21.6293 67.3944 19.35 85.8035C17.6331 99.6696 20.0258 113.097 25.5752 124.864C27.041 127.973 28.7271 130.965 30.6158 133.819L23.8494 139.488C21.9623 136.673 19.9367 133.313 18.4157 130.272C11.6085 116.66 8.60411 100.958 10.6145 84.7218C13.1782 64.0164 23.4387 46.1436 38.1723 33.6169ZM169.402 104.383C171.192 89.9215 169.005 75.8848 163.696 63.3706L156.489 69.0279C160.555 79.5922 162.155 91.2819 160.666 103.301C160.034 108.408 158.876 113.321 157.252 117.993L165.517 121.031C167.367 115.74 168.685 110.172 169.402 104.383ZM42.257 158.755L49.0403 152.8C46.1747 150.78 43.3616 148.75 40.8393 146.348L34.1343 151.115C34.8013 151.763 35.4937 152.462 36.2037 153.18C38.1419 155.139 40.2117 157.231 42.257 158.755Z" fill="white"/>
<path fill-rule="evenodd" clip-rule="evenodd" d="M38.1723 33.6169L43.8369 40.3545C30.7452 51.5013 21.6293 67.3944 19.35 85.8035C17.6331 99.6696 20.0258 113.097 25.5752 124.864C27.041 127.973 28.7271 130.965 30.6158 133.819L23.8494 139.488C21.9623 136.673 19.9367 133.313 18.4157 130.272C11.6085 116.66 8.60411 100.958 10.6145 84.7218C13.1782 64.0164 23.4387 46.1436 38.1723 33.6169ZM169.402 104.383C171.192 89.9215 169.005 75.8848 163.696 63.3706L156.489 69.0279C160.555 79.5922 162.155 91.2819 160.666 103.301C160.034 108.408 158.876 113.321 157.252 117.993L165.517 121.031C167.367 115.74 168.685 110.172 169.402 104.383ZM42.257 158.755L49.0403 152.8C46.1747 150.78 43.3616 148.75 40.8393 146.348L34.1343 151.115C34.8013 151.763 35.4937 152.462 36.2037 153.18C38.1419 155.139 40.2117 157.231 42.257 158.755Z" fill="url(#paint1_radial_233_81)"/>
<path d="M149.39 40.9428L142.588 46.5455C140.321 44.06 137.877 41.7319 135.271 39.5824L142.331 34.0242C144.828 36.1864 147.185 38.4979 149.39 40.9428Z" fill="white"/>
<path d="M149.39 40.9428L142.588 46.5455C140.321 44.06 137.877 41.7319 135.271 39.5824L142.331 34.0242C144.828 36.1864 147.185 38.4979 149.39 40.9428Z" fill="url(#paint2_radial_233_81)"/>
<path d="M21.1274 128.548L27.3505 136.529L144.055 45.541L137.832 37.5591L21.1274 128.548Z" fill="white"/>
<path d="M21.1274 128.548L27.3505 136.529L144.055 45.541L137.832 37.5591L21.1274 128.548Z" fill="url(#paint3_radial_233_81)"/>
<path d="M38.6419 148.067L44.8649 156.049L162.06 64.6778L155.837 56.696L38.6419 148.067Z" fill="white"/>
<path d="M38.6419 148.067L44.8649 156.049L162.06 64.6778L155.837 56.696L38.6419 148.067Z" fill="url(#paint4_radial_233_81)"/>
<path d="M62.906 163.036L71.5143 165.786L70.4859 169.005L61.8776 166.254L62.906 163.036ZM60.8618 170.49L70.594 173.6L69.533 176.921L55.6882 172.497L61.4017 154.616L74.9145 158.934L73.8534 162.255L64.4532 159.251L60.8618 170.49Z" fill="white"/>
<path d="M114.969 34.3436C113.531 33.9773 112.263 33.4145 111.165 32.6552C110.089 31.8829 109.209 30.9576 108.524 29.8792C107.857 28.8053 107.417 27.6326 107.206 26.3612C107.012 25.0942 107.09 23.7764 107.438 22.4078C107.787 21.0392 108.35 19.845 109.126 18.8252C109.92 17.8097 110.875 16.9923 111.992 16.3729C113.109 15.7535 114.332 15.3731 115.659 15.2316C116.991 15.0727 118.384 15.1787 119.84 15.5494C121.451 15.9598 122.829 16.5968 123.974 17.4604C125.137 18.3285 126.029 19.3861 126.653 20.6333L123.315 22.4395C122.833 21.5789 122.244 20.8847 121.548 20.3569C120.857 19.8118 120.052 19.4223 119.134 19.1884C118.25 18.9634 117.41 18.8968 116.611 18.9886C115.813 19.0804 115.079 19.3178 114.41 19.7007C113.758 20.0881 113.194 20.5994 112.718 21.2346C112.26 21.8743 111.921 22.6273 111.7 23.4935C111.484 24.3424 111.424 25.1573 111.52 25.9382C111.634 26.7235 111.882 27.4509 112.265 28.1203C112.67 28.7768 113.192 29.3342 113.832 29.7923C114.489 30.2548 115.25 30.5964 116.116 30.8171C116.948 31.0289 117.787 31.1042 118.632 31.0429C119.5 30.9688 120.388 30.706 121.296 30.2548L122.912 33.9042C121.735 34.3976 120.437 34.6759 119.019 34.7389C117.618 34.8064 116.268 34.6746 114.969 34.3436ZM119.205 32.3788L120.946 25.5444L124.792 26.5241L122.912 33.9042L119.205 32.3788Z" fill="white"/>
<path d="M84.2348 19.8203L93.2714 19.7269L93.3063 23.1056L84.2697 23.199L84.2348 19.8203ZM84.6364 27.5396L94.8528 27.4341L94.8888 30.92L80.3552 31.0702L80.1613 12.2998L94.3463 12.1532L94.3823 15.6392L84.5145 15.7411L84.6364 27.5396Z" fill="white"/>
<path d="M54.7826 38.3407L47.428 21.0701L54.9037 17.8866C56.4499 17.2282 57.8907 16.9158 59.2263 16.9494C60.555 16.9665 61.7232 17.3143 62.731 17.9927C63.7388 18.671 64.5194 19.6599 65.0728 20.9593C65.6191 22.2423 65.7876 23.4821 65.5783 24.6789C65.362 25.8591 64.7996 26.9341 63.8913 27.9039C62.9829 28.8736 61.7557 29.6877 60.2096 30.3461L54.9544 32.584L55.9848 30.0758L58.7796 36.6386L54.7826 38.3407ZM65.7618 33.6653L58.7755 29.2372L63.0438 27.4195L70.0795 31.8266L65.7618 33.6653ZM56.1739 30.5199L53.599 29.4013L58.6322 27.2579C59.8658 26.7326 60.6748 26.0772 61.0592 25.2917C61.4367 24.4897 61.4258 23.62 61.0265 22.6824C60.6203 21.7284 60.0008 21.1178 59.1681 20.8507C58.3353 20.5835 57.3022 20.7126 56.0685 21.2379L51.0354 23.3812L52.0028 20.725L56.1739 30.5199Z" fill="white"/>
<path d="M106.907 179.298L98.0645 160.746L93.7752 160.856L85.8627 179.835L90.42 179.719L96.8605 162.977L95.1448 163.02L102.457 179.412L106.907 179.298ZM102.622 175.384L101.385 172.116L91.7347 172.362L90.6392 175.689L102.622 175.384Z" fill="white"/>
<path d="M125.39 173.784L116.611 157.191L123.794 153.392C125.279 152.606 126.689 152.173 128.022 152.095C129.348 152 130.541 152.249 131.602 152.84C132.663 153.432 133.524 154.352 134.185 155.6C134.837 156.832 135.109 158.054 135.001 159.264C134.884 160.458 134.414 161.577 133.59 162.619C132.767 163.662 131.612 164.576 130.127 165.362L125.078 168.033L125.894 165.447L129.23 171.752L125.39 173.784ZM135.938 168.203L128.604 164.377L132.705 162.208L140.086 166.009L135.938 168.203ZM126.12 165.874L123.46 164.975L128.295 162.417C129.481 161.79 130.232 161.069 130.549 160.254C130.858 159.423 130.774 158.557 130.297 157.657C129.812 156.74 129.144 156.184 128.292 155.987C127.439 155.791 126.421 156.006 125.236 156.633L120.4 159.192L121.141 156.463L126.12 165.874Z" fill="white"/>
<path d="M154.902 151.993L139.479 141.294L141.527 138.342L158.944 136.945L157.951 138.377L146.846 130.674L149.291 127.148L164.715 137.848L162.682 140.778L145.249 142.197L146.243 140.765L157.348 148.468L154.902 151.993Z" fill="white"/>
<defs>
<radialGradient id="paint0_radial_233_81" cx="0" cy="0" r="1" gradientUnits="userSpaceOnUse" gradientTransform="translate(29003.3 969.034) rotate(-178.186) scale(28283.2 2219.74)">
<stop stop-color="#5200FF"/>
<stop offset="0.529068" stop-color="#CC79FF" stop-opacity="0.85"/>
<stop offset="1" stop-color="#00FFF0"/>
</radialGradient>
<radialGradient id="paint1_radial_233_81" cx="0" cy="0" r="1" gradientUnits="userSpaceOnUse" gradientTransform="translate(29003.3 969.034) rotate(-178.186) scale(28283.2 2219.74)">
<stop stop-color="#5200FF"/>
<stop offset="0.529068" stop-color="#CC79FF" stop-opacity="0.85"/>
<stop offset="1" stop-color="#00FFF0"/>
</radialGradient>
<radialGradient id="paint2_radial_233_81" cx="0" cy="0" r="1" gradientUnits="userSpaceOnUse" gradientTransform="translate(29003.3 969.034) rotate(-178.186) scale(28283.2 2219.74)">
<stop stop-color="#5200FF"/>
<stop offset="0.529068" stop-color="#CC79FF" stop-opacity="0.85"/>
<stop offset="1" stop-color="#00FFF0"/>
</radialGradient>
<radialGradient id="paint3_radial_233_81" cx="0" cy="0" r="1" gradientUnits="userSpaceOnUse" gradientTransform="translate(29003.3 969.034) rotate(-178.186) scale(28283.2 2219.74)">
<stop stop-color="#5200FF"/>
<stop offset="0.529068" stop-color="#CC79FF" stop-opacity="0.85"/>
<stop offset="1" stop-color="#00FFF0"/>
</radialGradient>
<radialGradient id="paint4_radial_233_81" cx="0" cy="0" r="1" gradientUnits="userSpaceOnUse" gradientTransform="translate(29003.3 969.034) rotate(-178.186) scale(28283.2 2219.74)">
<stop stop-color="#5200FF"/>
<stop offset="0.529068" stop-color="#CC79FF" stop-opacity="0.85"/>
<stop offset="1" stop-color="#00FFF0"/>
</radialGradient>
</defs>
</svg>
