<svg width="32" height="32" viewBox="0 0 32 32" fill="none" xmlns="http://www.w3.org/2000/svg">
<path fill-rule="evenodd" clip-rule="evenodd" d="M15.8592 0C7.12361 0 0.0419922 7.08162 0.0419922 15.8172C0.0419922 24.5529 7.12361 31.6345 15.8592 31.6345C24.5948 31.6345 31.6765 24.5529 31.6765 15.8172C31.6765 7.08162 24.5948 0 15.8592 0ZM12.3817 7.43235C13.2816 7.3914 13.5691 7.38139 15.8601 7.38139H15.8575C18.1493 7.38139 18.4357 7.3914 19.3356 7.43235C20.2337 7.47348 20.847 7.61566 21.3848 7.82427C21.9402 8.03957 22.4094 8.32779 22.8787 8.79704C23.3479 9.26594 23.6362 9.7366 23.8523 10.2914C24.0597 10.8278 24.2021 11.4408 24.2442 12.3389C24.2847 13.2387 24.2952 13.5263 24.2952 15.8173C24.2952 18.1084 24.2847 18.3952 24.2442 19.2951C24.2021 20.1928 24.0597 20.806 23.8523 21.3425C23.6362 21.8972 23.3479 22.3678 22.8787 22.8367C22.41 23.306 21.94 23.5949 21.3853 23.8104C20.8486 24.019 20.2349 24.1612 19.3368 24.2023C18.437 24.2433 18.1503 24.2533 15.8591 24.2533C13.5682 24.2533 13.2809 24.2433 12.381 24.2023C11.4831 24.1612 10.8699 24.019 10.3332 23.8104C9.77871 23.5949 9.30805 23.306 8.83933 22.8367C8.37026 22.3678 8.08203 21.8972 7.86639 21.3424C7.65795 20.806 7.51577 20.193 7.47447 19.2949C7.43369 18.395 7.4235 18.1084 7.4235 15.8173C7.4235 13.5263 7.43404 13.2386 7.47429 12.3387C7.51471 11.441 7.65707 10.8278 7.86621 10.2913C8.08238 9.7366 8.37061 9.26594 8.83986 8.79704C9.30876 8.32797 9.77941 8.03974 10.3343 7.82427C10.8706 7.61566 11.4836 7.47348 12.3817 7.43235Z" fill="white"/>
<path fill-rule="evenodd" clip-rule="evenodd" d="M15.1033 8.90158C15.2502 8.90135 15.4083 8.90143 15.5789 8.9015L15.8601 8.90158C18.1125 8.90158 18.3794 8.90967 19.2689 8.95009C20.0914 8.9877 20.5378 9.12514 20.8352 9.2406C21.2288 9.39351 21.5095 9.57628 21.8046 9.87154C22.0998 10.1668 22.2826 10.448 22.4359 10.8417C22.5513 11.1387 22.689 11.5851 22.7264 12.4076C22.7668 13.2969 22.7756 13.564 22.7756 15.8154C22.7756 18.0667 22.7668 18.3339 22.7264 19.2231C22.6888 20.0456 22.5513 20.492 22.4359 20.7891C22.283 21.1827 22.0998 21.4631 21.8046 21.7581C21.5093 22.0534 21.229 22.2362 20.8352 22.3891C20.5381 22.5051 20.0914 22.6422 19.2689 22.6798C18.3796 22.7202 18.1125 22.729 15.8601 22.729C13.6075 22.729 13.3405 22.7202 12.4512 22.6798C11.6287 22.6418 11.1823 22.5044 10.8848 22.3889C10.4911 22.236 10.2099 22.0532 9.91465 21.758C9.61939 21.4627 9.43661 21.1822 9.28336 20.7884C9.16789 20.4913 9.03028 20.0449 8.99284 19.2224C8.95242 18.3331 8.94434 18.066 8.94434 15.8133C8.94434 13.5605 8.95242 13.2948 8.99284 12.4055C9.03045 11.583 9.16789 11.1366 9.28336 10.8392C9.43626 10.4455 9.61939 10.1643 9.91465 9.86908C10.2099 9.57382 10.4911 9.39104 10.8848 9.23779C11.1821 9.1218 11.6287 8.98471 12.4512 8.94693C13.2294 8.91178 13.531 8.90123 15.1033 8.89948V8.90158ZM20.3631 10.3023C19.8042 10.3023 19.3508 10.7552 19.3508 11.3143C19.3508 11.8732 19.8042 12.3266 20.3631 12.3266C20.922 12.3266 21.3754 11.8732 21.3754 11.3143C21.3754 10.7554 20.922 10.302 20.3631 10.302V10.3023ZM11.5278 15.8173C11.5278 13.4249 13.4674 11.4852 15.8598 11.4851C18.2523 11.4851 20.1915 13.4248 20.1915 15.8173C20.1915 18.2098 18.2524 20.1486 15.86 20.1486C13.4675 20.1486 11.5278 18.2098 11.5278 15.8173Z" fill="white"/>
<path d="M15.8598 13.0054C17.4128 13.0054 18.6718 14.2643 18.6718 15.8174C18.6718 17.3703 17.4128 18.6293 15.8598 18.6293C14.3067 18.6293 13.0479 17.3703 13.0479 15.8174C13.0479 14.2643 14.3067 13.0054 15.8598 13.0054Z" fill="white"/>
</svg>
