<svg width="32" height="32" viewBox="0 0 32 32" fill="none" xmlns="http://www.w3.org/2000/svg">
<path fill-rule="evenodd" clip-rule="evenodd" d="M15.9012 0C7.1656 0 0.0839844 7.08162 0.0839844 15.8172C0.0839844 24.5529 7.1656 31.6345 15.9012 31.6345C24.6368 31.6345 31.7185 24.5529 31.7185 15.8172C31.7185 7.08162 24.6368 0 15.9012 0ZM15.4607 13.4038L15.4275 12.8565C15.3279 11.4379 16.202 10.1422 17.5849 9.63961C18.0939 9.4609 18.9569 9.43856 19.5211 9.59493C19.7424 9.66195 20.1628 9.88534 20.4615 10.0864L21.0037 10.455L21.6011 10.2651C21.933 10.1646 22.3756 9.99704 22.5747 9.88534C22.7628 9.78481 22.9288 9.72897 22.9288 9.76248C22.9288 9.95236 22.5194 10.6002 22.1764 10.9576C21.7118 11.4603 21.8445 11.5049 22.7849 11.1698C23.3492 10.98 23.3603 10.98 23.2496 11.1922C23.1832 11.3039 22.8403 11.6948 22.4752 12.0523C21.8556 12.6666 21.8224 12.7336 21.8224 13.2474C21.8224 14.0404 21.4462 15.6936 21.07 16.5983C20.373 18.2961 18.8794 20.0497 17.3858 20.9321C15.2837 22.1719 12.4845 22.4847 10.1279 21.7587C9.34239 21.5129 7.9926 20.8874 7.9926 20.7757C7.9926 20.7422 8.40196 20.6975 8.89984 20.6864C9.93984 20.664 10.9798 20.3736 11.8649 19.8598L12.4624 19.5024L11.7764 19.2678C10.8028 18.9327 9.92877 18.162 9.7075 17.436C9.64111 17.2015 9.66324 17.1903 10.2828 17.1903L10.9245 17.1791L10.3824 16.9222C9.74069 16.5983 9.15431 16.051 8.86665 15.4925C8.65643 15.0904 8.3909 14.074 8.46835 13.9958C8.49047 13.9623 8.72282 14.0293 8.98835 14.1186C9.75175 14.3979 9.85133 14.3309 9.40877 13.8617C8.57899 13.0128 8.32452 11.7507 8.72282 10.5555L8.9109 10.0194L9.64111 10.7454C11.1347 12.2086 12.8939 13.0799 14.9075 13.3368L15.4607 13.4038Z" fill="white"/>
</svg>
